<svg width="20" height="21" viewBox="0 0 20 21" fill="none" xmlns="http://www.w3.org/2000/svg">
<path d="M9.99996 8.00008C9.33692 8.00008 8.70103 8.26347 8.23219 8.73232C7.76335 9.20116 7.49996 9.83704 7.49996 10.5001C7.49996 11.1631 7.76335 11.799 8.23219 12.2679C8.70103 12.7367 9.33692 13.0001 9.99996 13.0001C10.663 13.0001 11.2989 12.7367 11.7677 12.2679C12.2366 11.799 12.5 11.1631 12.5 10.5001C12.5 9.83704 12.2366 9.20116 11.7677 8.73232C11.2989 8.26347 10.663 8.00008 9.99996 8.00008ZM9.99996 6.33342C11.105 6.33342 12.1648 6.7724 12.9462 7.5538C13.7276 8.33521 14.1666 9.39501 14.1666 10.5001C14.1666 11.6052 13.7276 12.665 12.9462 13.4464C12.1648 14.2278 11.105 14.6668 9.99996 14.6667C8.89489 14.6668 7.83508 14.2278 7.05368 13.4464C6.27228 12.665 5.83329 11.6052 5.83329 10.5001C5.83329 9.39501 6.27228 8.33521 7.05368 7.5538C7.83508 6.7724 8.89489 6.33342 9.99996 6.33342ZM15.4166 6.12508C15.4166 6.40135 15.3069 6.6663 15.1115 6.86165C14.9162 7.057 14.6512 7.16675 14.375 7.16675C14.0987 7.16675 13.8337 7.057 13.6384 6.86165C13.443 6.6663 13.3333 6.40135 13.3333 6.12508C13.3333 5.84881 13.443 5.58386 13.6384 5.38851C13.8337 5.19316 14.0987 5.08342 14.375 5.08342C14.6512 5.08342 14.9162 5.19316 15.1115 5.38851C15.3069 5.58386 15.4166 5.84881 15.4166 6.12508ZM9.99996 3.83342C7.93829 3.83342 7.60163 3.83925 6.64246 3.88175C5.98913 3.91258 5.55079 4.00008 5.14413 4.15841C4.80381 4.28336 4.49614 4.48363 4.24413 4.74425C3.9833 4.99625 3.78275 5.3039 3.65746 5.64425C3.49913 6.05258 3.41163 6.49008 3.38163 7.14258C3.33829 8.06258 3.33329 8.38425 3.33329 10.5001C3.33329 12.5618 3.33913 12.8984 3.38163 13.8576C3.41246 14.5101 3.49996 14.9493 3.65746 15.3551C3.79913 15.7176 3.96579 15.9784 4.24246 16.2551C4.52329 16.5351 4.78413 16.7026 5.14246 16.8409C5.55413 17.0001 5.99246 17.0884 6.64246 17.1184C7.56246 17.1618 7.88413 17.1668 9.99996 17.1668C12.0616 17.1668 12.3983 17.1609 13.3575 17.1184C14.0091 17.0876 14.4483 17.0001 14.855 16.8426C15.1948 16.717 15.5022 16.5171 15.755 16.2576C16.0358 15.9768 16.2033 15.7159 16.3416 15.3576C16.5 14.9468 16.5883 14.5076 16.6183 13.8576C16.6616 12.9376 16.6666 12.6159 16.6666 10.5001C16.6666 8.43842 16.6608 8.10175 16.6183 7.14258C16.5875 6.49092 16.5 6.05092 16.3416 5.64425C16.216 5.30425 16.0159 4.99672 15.7558 4.74425C15.5039 4.48329 15.1962 4.28272 14.8558 4.15758C14.4475 3.99925 14.0091 3.91175 13.3575 3.88175C12.4375 3.83842 12.1158 3.83342 9.99996 3.83342ZM9.99996 2.16675C12.2641 2.16675 12.5466 2.17508 13.435 2.21675C14.3225 2.25841 14.9266 2.39758 15.4583 2.60425C16.0083 2.81591 16.4716 3.10258 16.935 3.56508C17.3587 3.98166 17.6866 4.48557 17.8958 5.04175C18.1016 5.57258 18.2416 6.17758 18.2833 7.06508C18.3225 7.95342 18.3333 8.23592 18.3333 10.5001C18.3333 12.7642 18.325 13.0468 18.2833 13.9351C18.2416 14.8226 18.1016 15.4268 17.8958 15.9584C17.6872 16.5149 17.3592 17.0189 16.935 17.4351C16.5183 17.8587 16.0144 18.1865 15.4583 18.3959C14.9275 18.6018 14.3225 18.7418 13.435 18.7834C12.5466 18.8226 12.2641 18.8334 9.99996 18.8334C7.73579 18.8334 7.45329 18.8251 6.56496 18.7834C5.67746 18.7418 5.07329 18.6018 4.54163 18.3959C3.98523 18.1871 3.48123 17.8592 3.06496 17.4351C2.64113 17.0186 2.31324 16.5146 2.10413 15.9584C1.89746 15.4276 1.75829 14.8226 1.71663 13.9351C1.67746 13.0468 1.66663 12.7642 1.66663 10.5001C1.66663 8.23592 1.67496 7.95342 1.71663 7.06508C1.75829 6.17675 1.89746 5.57342 2.10413 5.04175C2.31266 4.48523 2.64063 3.98118 3.06496 3.56508C3.48135 3.14111 3.98532 2.81319 4.54163 2.60425C5.07329 2.39758 5.67663 2.25841 6.56496 2.21675C7.45329 2.17758 7.73579 2.16675 9.99996 2.16675Z" fill="#4316C4"/>
</svg>
