<svg width="134" height="19" viewBox="0 0 134 19" fill="none" xmlns="http://www.w3.org/2000/svg">
<path d="M0 5.25193C0 2.29993 2.808 0.331925 5.712 0.835926V2.82793C4.2 2.56393 3.048 2.99593 2.664 4.14793C2.856 4.09993 3.048 4.07593 3.216 4.07593C4.416 4.07593 5.304 4.98793 5.304 6.11593C5.304 7.41193 4.32 8.32393 2.784 8.32393C1.152 8.32393 0 7.21993 0 5.25193ZM6.432 5.25193C6.432 2.29993 9.24 0.331925 12.144 0.835926V2.82793C10.632 2.56393 9.48 2.99593 9.096 4.14793C9.288 4.09993 9.48 4.07593 9.648 4.07593C10.848 4.07593 11.736 4.98793 11.736 6.11593C11.736 7.41193 10.752 8.32393 9.216 8.32393C7.584 8.32393 6.432 7.21993 6.432 5.25193Z" fill="black"/>
<path d="M32.8074 12.9319C32.8074 16.1719 30.4074 18.1159 26.3994 18.1159H19.2714V0.883925H26.1834C29.9514 0.883925 32.3034 2.53993 32.3034 5.53993C32.3034 7.05193 31.5114 8.22793 30.0714 9.09193C31.8234 9.83593 32.8074 11.1079 32.8074 12.9319ZM25.8234 4.45993H23.3754V7.43593H25.8234C27.3354 7.43593 28.0314 6.85993 28.0314 5.92393C28.0314 5.03593 27.3354 4.45993 25.8234 4.45993ZM26.0394 11.0119H23.3754V14.5399H26.0394C27.7434 14.5399 28.5354 13.8679 28.5354 12.7639C28.5354 11.7079 27.7434 11.0119 26.0394 11.0119Z" fill="black"/>
<path d="M43.4091 18.4759C38.4411 18.4759 34.5291 14.7079 34.5291 9.47593C34.5291 4.24393 38.4411 0.523926 43.4091 0.523926C48.4011 0.523926 52.3131 4.24393 52.3131 9.47593C52.3131 14.7079 48.4011 18.4759 43.4091 18.4759ZM43.4091 14.4199C46.1211 14.4199 47.6331 12.1879 47.6331 9.47593C47.6331 6.76393 46.1211 4.57993 43.4091 4.57993C40.6971 4.57993 39.1851 6.76393 39.1851 9.47593C39.1851 12.1879 40.6971 14.4199 43.4091 14.4199Z" fill="black"/>
<path d="M62.5341 18.4759C57.5661 18.4759 53.6541 14.7079 53.6541 9.47593C53.6541 4.24393 57.5661 0.523926 62.5341 0.523926C67.5261 0.523926 71.4381 4.24393 71.4381 9.47593C71.4381 14.7079 67.5261 18.4759 62.5341 18.4759ZM62.5341 14.4199C65.2461 14.4199 66.7581 12.1879 66.7581 9.47593C66.7581 6.76393 65.2461 4.57993 62.5341 4.57993C59.8221 4.57993 58.3101 6.76393 58.3101 9.47593C58.3101 12.1879 59.8221 14.4199 62.5341 14.4199Z" fill="black"/>
<path d="M78.3231 18.1159H73.7871V0.883925H78.3231V8.13193L83.6991 0.883925H88.8591L82.7871 8.97193L89.0271 18.1159H83.5071L78.3231 10.3399V18.1159Z" fill="black"/>
<path d="M95.3856 18.1159H90.8496V0.883925H95.3856V18.1159Z" fill="black"/>
<path d="M109.764 18.1159L102.9 7.36393V18.1159H98.748V0.883925H103.62L109.98 10.8439V0.883925H114.132V18.1159H109.764Z" fill="black"/>
<path d="M121.266 5.25193C121.266 2.29993 124.074 0.331925 126.978 0.835926V2.82793C125.466 2.56393 124.314 2.99593 123.93 4.14793C124.122 4.09993 124.314 4.07593 124.482 4.07593C125.682 4.07593 126.57 4.98793 126.57 6.11593C126.57 7.41193 125.586 8.32393 124.05 8.32393C122.418 8.32393 121.266 7.21993 121.266 5.25193ZM127.698 5.25193C127.698 2.29993 130.506 0.331925 133.41 0.835926V2.82793C131.898 2.56393 130.746 2.99593 130.362 4.14793C130.554 4.09993 130.746 4.07593 130.914 4.07593C132.114 4.07593 133.002 4.98793 133.002 6.11593C133.002 7.41193 132.018 8.32393 130.482 8.32393C128.85 8.32393 127.698 7.21993 127.698 5.25193Z" fill="black"/>
</svg>
