<svg width="134" height="18" viewBox="0 0 134 18" fill="none" xmlns="http://www.w3.org/2000/svg">
<path d="M0 4.728C0 1.776 2.808 -0.192 5.712 0.312V2.304C4.2 2.04 3.048 2.472 2.664 3.624C2.856 3.576 3.048 3.552 3.216 3.552C4.416 3.552 5.304 4.464 5.304 5.592C5.304 6.888 4.32 7.8 2.784 7.8C1.152 7.8 0 6.696 0 4.728ZM6.432 4.728C6.432 1.776 9.24 -0.192 12.144 0.312V2.304C10.632 2.04 9.48 2.472 9.096 3.624C9.288 3.576 9.48 3.552 9.648 3.552C10.848 3.552 11.736 4.464 11.736 5.592C11.736 6.888 10.752 7.8 9.216 7.8C7.584 7.8 6.432 6.696 6.432 4.728Z" fill="white"/>
<path d="M32.8074 12.408C32.8074 15.648 30.4074 17.592 26.3994 17.592H19.2714V0.36H26.1834C29.9514 0.36 32.3034 2.016 32.3034 5.016C32.3034 6.528 31.5114 7.704 30.0714 8.568C31.8234 9.312 32.8074 10.584 32.8074 12.408ZM25.8234 3.936H23.3754V6.912H25.8234C27.3354 6.912 28.0314 6.336 28.0314 5.4C28.0314 4.512 27.3354 3.936 25.8234 3.936ZM26.0394 10.488H23.3754V14.016H26.0394C27.7434 14.016 28.5354 13.344 28.5354 12.24C28.5354 11.184 27.7434 10.488 26.0394 10.488Z" fill="white"/>
<path d="M43.4091 17.952C38.4411 17.952 34.5291 14.184 34.5291 8.952C34.5291 3.72 38.4411 0 43.4091 0C48.4011 0 52.3131 3.72 52.3131 8.952C52.3131 14.184 48.4011 17.952 43.4091 17.952ZM43.4091 13.896C46.1211 13.896 47.6331 11.664 47.6331 8.952C47.6331 6.24 46.1211 4.056 43.4091 4.056C40.6971 4.056 39.1851 6.24 39.1851 8.952C39.1851 11.664 40.6971 13.896 43.4091 13.896Z" fill="white"/>
<path d="M62.5341 17.952C57.5661 17.952 53.6541 14.184 53.6541 8.952C53.6541 3.72 57.5661 0 62.5341 0C67.5261 0 71.4381 3.72 71.4381 8.952C71.4381 14.184 67.5261 17.952 62.5341 17.952ZM62.5341 13.896C65.2461 13.896 66.7581 11.664 66.7581 8.952C66.7581 6.24 65.2461 4.056 62.5341 4.056C59.8221 4.056 58.3101 6.24 58.3101 8.952C58.3101 11.664 59.8221 13.896 62.5341 13.896Z" fill="white"/>
<path d="M78.3231 17.592H73.7871V0.36H78.3231V7.608L83.6991 0.36H88.8591L82.7871 8.448L89.0271 17.592H83.5071L78.3231 9.816V17.592Z" fill="white"/>
<path d="M95.3856 17.592H90.8496V0.36H95.3856V17.592Z" fill="white"/>
<path d="M109.764 17.592L102.9 6.84V17.592H98.748V0.36H103.62L109.98 10.32V0.36H114.132V17.592H109.764Z" fill="white"/>
<path d="M121.266 4.728C121.266 1.776 124.074 -0.192 126.978 0.312V2.304C125.466 2.04 124.314 2.472 123.93 3.624C124.122 3.576 124.314 3.552 124.482 3.552C125.682 3.552 126.57 4.464 126.57 5.592C126.57 6.888 125.586 7.8 124.05 7.8C122.418 7.8 121.266 6.696 121.266 4.728ZM127.698 4.728C127.698 1.776 130.506 -0.192 133.41 0.312V2.304C131.898 2.04 130.746 2.472 130.362 3.624C130.554 3.576 130.746 3.552 130.914 3.552C132.114 3.552 133.002 4.464 133.002 5.592C133.002 6.888 132.018 7.8 130.482 7.8C128.85 7.8 127.698 6.696 127.698 4.728Z" fill="white"/>
</svg>
