<svg width="20" height="21" viewBox="0 0 20 21" fill="none" xmlns="http://www.w3.org/2000/svg">
<path d="M17.9525 5.91492C18.3333 7.39992 18.3333 10.4999 18.3333 10.4999C18.3333 10.4999 18.3333 13.5999 17.9525 15.0849C17.7408 15.9058 17.1216 16.5516 16.3375 16.7699C14.9133 17.1666 9.99996 17.1666 9.99996 17.1666C9.99996 17.1666 5.08913 17.1666 3.66246 16.7699C2.87496 16.5483 2.25663 15.9033 2.04746 15.0849C1.66663 13.5999 1.66663 10.4999 1.66663 10.4999C1.66663 10.4999 1.66663 7.39992 2.04746 5.91492C2.25913 5.09409 2.87829 4.44825 3.66246 4.22992C5.08913 3.83325 9.99996 3.83325 9.99996 3.83325C9.99996 3.83325 14.9133 3.83325 16.3375 4.22992C17.125 4.45159 17.7433 5.09659 17.9525 5.91492ZM8.33329 13.4166L13.3333 10.4999L8.33329 7.58325V13.4166Z" fill="#4316C4"/>
</svg>
