<svg width="20" height="21" viewBox="0 0 20 21" fill="none" xmlns="http://www.w3.org/2000/svg">
<path d="M18.4684 5.21327C17.8322 5.49468 17.1575 5.6795 16.4667 5.76161C17.1948 5.32613 17.7398 4.64078 18 3.83327C17.3167 4.23994 16.5675 4.52494 15.7867 4.67911C15.2622 4.11792 14.567 3.74574 13.8092 3.62043C13.0513 3.49511 12.2733 3.62368 11.5961 3.98615C10.9189 4.34862 10.3804 4.92468 10.0643 5.62477C9.74824 6.32486 9.67233 7.10976 9.84838 7.85744C8.46263 7.78798 7.10699 7.42787 5.86945 6.80049C4.63191 6.17311 3.54015 5.29248 2.66504 4.21577C2.35529 4.74781 2.19251 5.35263 2.19338 5.96827C2.19338 7.1766 2.80838 8.24411 3.74338 8.86911C3.19005 8.85169 2.6489 8.70226 2.16504 8.43327V8.4766C2.16521 9.28136 2.44368 10.0613 2.95325 10.6842C3.46282 11.307 4.17211 11.7345 4.96088 11.8941C4.44722 12.0333 3.90863 12.0538 3.38588 11.9541C3.60827 12.6468 4.04172 13.2526 4.62554 13.6867C5.20936 14.1208 5.91432 14.3614 6.64171 14.3749C5.91878 14.9427 5.09102 15.3624 4.20578 15.6101C3.32053 15.8577 2.39515 15.9285 1.48254 15.8183C3.07563 16.8428 4.93012 17.3867 6.82421 17.3849C13.235 17.3849 16.7409 12.0741 16.7409 7.46827C16.7409 7.31827 16.7367 7.16661 16.73 7.01827C17.4124 6.52508 18.0014 5.91412 18.4692 5.21411L18.4684 5.21327Z" fill="#4316C4"/>
</svg>
